<?xml version="1.0" standalone="no"?>
<!DOCTYPE svg PUBLIC "-//W3C//DTD SVG 20010904//EN"
 "http://www.w3.org/TR/2001/REC-SVG-20010904/DTD/svg10.dtd">
<svg version="1.0" xmlns="http://www.w3.org/2000/svg"
 width="100.000000pt" height="100.000000pt" viewBox="0 0 100.000000 100.000000"
 preserveAspectRatio="xMidYMid meet">

<g transform="translate(0.000000,100.000000) scale(0.100000,-0.100000)"
fill="#000000" stroke="none">
<path d="M351 844 c-19 -24 -21 -40 -21 -154 0 -114 2 -130 21 -154 40 -51
109 -24 109 42 0 31 1 32 48 32 120 0 192 104 137 197 -30 52 -61 63 -173 63
-97 0 -101 -1 -121 -26z m273 -39 c25 -38 20 -98 -10 -134 -28 -34 -49 -39
-177 -43 l-87 -3 0 31 c0 17 6 36 13 42 6 5 54 12 105 14 110 4 127 15 119 85
-5 46 10 50 37 8z m-96 -62 c-10 -2 -28 -2 -40 0 -13 2 -5 4 17 4 22 1 32 -1
23 -4z"/>
<path d="M130 330 c0 -82 3 -100 15 -100 11 0 15 12 15 45 0 38 3 45 19 45 11
0 27 10 35 21 14 21 15 18 18 -42 2 -51 6 -64 21 -67 14 -3 17 4 18 40 l1 43
14 -33 c16 -37 51 -54 103 -50 25 2 37 8 39 21 3 14 -4 17 -48 17 -45 0 -52 3
-60 25 -7 18 -5 32 7 54 16 27 16 30 0 55 -23 34 -86 38 -94 6 l-6 -21 -14 21
c-10 13 -25 20 -49 20 l-34 0 0 -100z m58 42 c2 -15 -2 -22 -12 -22 -11 0 -16
9 -16 26 0 31 23 28 28 -4z m107 3 c0 -10 -6 -20 -12 -22 -8 -3 -13 5 -13 22
0 17 5 25 13 23 6 -3 12 -13 12 -23z"/>
<path d="M354 416 c-3 -7 -4 -37 -2 -66 3 -60 24 -84 56 -64 21 13 29 108 11
130 -15 18 -58 18 -65 0z m33 -78 c-2 -13 -4 -5 -4 17 -1 22 1 32 4 23 2 -10
2 -28 0 -40z"/>
<path d="M450 329 l0 -100 42 3 c31 2 44 8 46 21 3 13 -3 17 -27 17 -26 0 -31
4 -31 25 0 18 5 25 20 25 11 0 20 7 20 15 0 8 -9 15 -20 15 -15 0 -20 7 -20
25 0 21 5 25 30 25 20 0 30 5 30 15 0 11 -12 15 -45 15 l-45 0 0 -101z"/>
<path d="M552 333 c2 -79 6 -98 18 -98 10 0 16 12 18 35 l4 35 16 -34 c32 -65
42 -51 42 58 0 94 -1 101 -20 101 -16 0 -20 -7 -21 -32 l-1 -33 -14 33 c-8 17
-21 32 -29 32 -13 0 -15 -15 -13 -97z"/>
<path d="M682 418 c-16 -16 -16 -150 0 -166 22 -22 67 -14 80 13 8 18 8 29 1
36 -14 14 -33 3 -33 -17 0 -9 -6 -14 -12 -12 -17 6 -23 107 -8 122 8 8 12 4
16 -12 7 -23 28 -30 39 -12 4 6 -1 22 -9 35 -18 27 -54 33 -74 13z"/>
<path d="M782 333 l3 -98 43 -3 c37 -3 42 -1 42 17 0 16 -6 21 -25 21 -20 0
-25 5 -25 25 0 18 5 25 20 25 11 0 20 7 20 15 0 8 -9 15 -20 15 -15 0 -20 7
-20 25 0 20 5 25 25 25 16 0 25 6 25 15 0 11 -12 15 -45 15 l-46 0 3 -97z"/>
</g>
</svg>
